<svg xmlns="http://www.w3.org/2000/svg" viewBox="0 0 367.26 294.52"><defs><style>.cls-1{fill:none}.cls-2{fill:#1a558c}.cls-5{fill:#306bac}.cls-6{fill:#1d2b36}.cls-7{fill:#18456d}.cls-8{fill:#1c5c9c}.cls-9{fill:#193d5b}.cls-13{fill:#1c354a}</style></defs><g id="图层_2" data-name="图层 2"><g id="Layer_1" data-name="Layer 1"><path d="M266.54 287.45v-1.52l-5.3-15.93v2.13l5.3 15.32zM139.6 287.15v-1.35l-5.3-15.88v1.92l5.3 15.31zM166.11 116.92v1.89l5 14.99v-1.27l-5-15.61zM155.5 85.41v1.67l5.01 14.99v-1.35l-5.01-15.31z" class="cls-1"/><path d="m134.3 271.84 5.3 15.31v-1.35l-5.3-15.88v1.92zM176.71 148.73v1.81l5.01 14.99v-1.48l-5.01-15.32zM144.9 53.6v1.76l5.01 14.98v-1.13L144.9 53.6zM234.73 192.91v-2.54l-5.01-15.04v1.97l5.01 15.61zM255.94 255.64v-1.57l-5.01-15.04v1.29l5.01 15.32zM224.13 160.81v-2.3l-5.01-15.04v2.02l5.01 15.32zM240.91 211.46v-.29l4.42 12.96v-1.91l-5.01-15.04v2.22l.59 2.06zM192.32 64.79v-1.83l-5.01-15.05v1.57l5.01 15.31zM213.52 129v-2.34l-5-15.04v1.77l5 15.61zM199.09 85.11l3.83 11.79v-2.09l-5.01-15.05v1.53l1.18 3.82zM86.59 128.7v-1.73l-5.3-15.88v2l5.3 15.61zM107.79 192.61v-2.11l-5.3-15.88V177l5.3 15.61zM97.19 160.51v-1.78l-5.3-15.88v2.35l5.3 15.31zM72.16 85.11l3.82 11.49v-1.4l-5.29-15.88v1.67l1.47 4.12zM113.98 211.46v-.29l4.42 12.66v-1.56l-5.31-15.89v2.73l.89 2.35zM65.38 64.5v-1.07l-5.3-15.88v1.63l5.3 15.32zM129 255.34v-1.3l-5.3-15.89v1.88l5.3 15.31zM139.6 37.4l-5.3-15.31v1.54l5.3 15.86V37.4z" class="cls-1"/><path d="M139.6 285.8V39.49l-5.3-15.86v246.29l5.3 15.88z" class="cls-1"/><path d="M102.49 0h-5.3v158.73l5.3 15.89V0z" class="cls-2"/><path d="M113.09 0h-5.3v190.5l5.3 15.88V0z" style="fill:#154d7d"/><path d="M123.7 0h-5.3v222.27l5.3 18.45V0z" style="fill:#154e7e"/><path d="M91.89 0h-5.3v126.97l5.3 15.88V0z" class="cls-2"/><path d="M70.69 0h-5.31v63.43l5.31 15.89V0z" class="cls-5"/><path d="M361.67 0v18.26l5.59-16.49V0h-5.59z" class="cls-6"/><path d="M60.08 0h-5.3v31.67l5.3 15.88V0z" class="cls-5"/><path d="m277.14 271.54 5.3-16.2V0h-5.3v271.54z" class="cls-7"/><path d="M81.29 0h-5.31v95.2l5.31 15.89V0z" class="cls-8"/><path d="m139.6 287.15-5.3-15.31v-1.92L129 254v1.31L123.7 240v-1.88l-5.3-15.88v1.56l-4.4-12.63v.29l-.89-2.35v-2.72l-5.3-15.89v2.11L102.49 177v-2.38l-5.3-15.89v1.78l-5.3-15.31v-2.35L86.59 127v1.73l-5.3-15.61v-2L76 95.2v1.4l-3.84-11.48L70.68 81v-1.68l-5.3-15.89v1.07l-5.3-15.32v-1.63l-5.3-15.88v1l-5.3-15.61V0h-5.3v.59l-.3-.59H0l98.37 294.22v.3H142v-.3l.22-.69-2.58-7.73Z" class="cls-5"/><path d="m287.74 240.03 5.31-16.49V0h-5.31v240.03z" class="cls-9"/><path d="M229.72 0h-5.59v158.51l5.59 16.82V0zM208.52 0h-5.6v94.81l5.6 16.81V0z" class="cls-8"/><path d="M187.31 0h-5.59v31.1l5.59 16.81V0z" class="cls-5"/><path d="M197.91 0h-5.59v62.96l5.59 16.8V0z" style="fill:#1a5d9c"/><path d="M219.12 0h-5.6v126.66l5.6 16.81V0z" class="cls-8"/><path d="m266.54 285.93 2.86 8.59h.08l2.36-7.66V0h-5.3v285.93z" class="cls-7"/><path d="M240.32 0h-5.59v190.37l5.59 16.81V0z" class="cls-2"/><path d="M261.24 0h-5.3v254.07l5.3 15.93V0z" style="fill:#154d7e"/><path d="M250.93 0h-5.6v222.22l5.6 16.81V0z" class="cls-2"/><path d="m160.51 237.97 5.6-16.2V118.81l-5.6-16.74v135.9zM171.11 206.46l5.6-16.5v-39.42l-5.6-16.74v72.66z" class="cls-6"/><path d="m181.72 174.65 1.52-4.57-1.52-4.55v9.12z" style="fill:#1a2630"/><path d="m149.91 269.78 5.59-16.5V87.08l-5.59-16.74v199.44z" class="cls-13"/><path d="M134.3 23.63 129 7.76v246.28l5.3 15.88V23.63z" class="cls-9"/><path d="m266.54 287.45-5.3-15.32V270l-5.31-15.93v1.57l-5-15.32V239l-5.6-16.81v1.91l-4.42-13v.29l-.58-2.06v-2.22l-5.6-16.81v2.54l-5-15.61v-2l-5.59-16.82v2.3l-5-15.32v-2l-5.6-16.81V129l-5-15.61v-1.77l-5.6-16.81v2.09l-3.83-11.78-1.18-3.83v-1.53L192.32 63v1.83l-5-15.31v-1.61l-5.6-16.81V33l-5-15.61V0h-5.6v.88l-.3-.88h-43.88l1.76 4.78.3.82v2.16l5.3 15.87v-1.54l5.3 15.31v2.09l5.3 15.87V53.6l5 15.61v1.13l5.59 16.75v-1.68l5 15.31v1.35l5.6 16.74v-1.89l5 15.61v1.27l5.6 16.74v-1.81l5 15.32v1.48l1.52 4.55.24-.73 3.83 11.19 5 15.31 5.59 16.2 5 15.32 5.6 16.49 5 15.31 5.6 16.2 5 15.32 1.18 3.83h44.15l-2.86-8.59Z" style="fill:#2f6cac"/><path d="m139.6 285.8 2.58 7.73 2.72-8.44V55.36l-5.3-15.87V285.8z" class="cls-13"/><path d="m351.36 49.77 5.3-16.19V0h-5.3v49.77z" style="fill:#1f2b37"/><path d="m298.35 208.22 5.3-16.2V0h-5.3v208.22z" class="cls-13"/><path d="m330.15 113.09 5.3-16.19V0h-5.3v113.09z" class="cls-6"/><path d="m308.95 176.42 5.3-16.2V0h-5.3v176.42z" style="fill:#1b3449"/><path d="m340.76 81.58 5.3-16.49V0h-5.3v81.58z" style="fill:#1f2b36"/><path d="M319.55 0v144.9l5.3-16.2V0h-5.3z" class="cls-6"/></g></g></svg>