<svg xmlns="http://www.w3.org/2000/svg" viewBox="0 0 367.26 294.52"><defs><style>.cls-1{fill:none;}.cls-2{fill:#1a558c;}.cls-3{fill:#154d7d;}.cls-4{fill:#154e7e;}.cls-5{fill:#306bac;}.cls-6{fill:#1d2b36;}.cls-7{fill:#18456d;}.cls-8{fill:#1c5c9c;}.cls-9{fill:#193d5b;}.cls-10{fill:#1a5d9c;}.cls-11{fill:#154d7e;}.cls-12{fill:#1a2630;}.cls-13{fill:#1c354a;}.cls-14{fill:#2f6cac;}.cls-15{fill:#1f2b37;}.cls-16{fill:#1b3449;}.cls-17{fill:#1f2b36;}</style></defs><title>bannner资源 1</title><g id="图层_2" data-name="图层 2"><g id="Layer_1" data-name="Layer 1"><polygon class="cls-1" points="266.54 287.45 266.54 285.93 261.24 270 261.24 272.13 266.54 287.45"/><polygon class="cls-1" points="139.6 287.15 139.6 285.8 134.3 269.92 134.3 271.84 139.6 287.15"/><polygon class="cls-1" points="166.11 116.92 166.11 118.81 171.11 133.8 171.11 132.53 166.11 116.92"/><polygon class="cls-1" points="155.5 85.41 155.5 87.08 160.51 102.07 160.51 100.72 155.5 85.41"/><polygon class="cls-1" points="134.3 271.84 139.6 287.15 139.6 285.8 134.3 269.92 134.3 271.84"/><polygon class="cls-1" points="176.71 148.73 176.71 150.54 181.72 165.53 181.72 164.05 176.71 148.73"/><polygon class="cls-1" points="144.9 53.6 144.9 55.36 149.91 70.34 149.91 69.21 144.9 53.6"/><polygon class="cls-1" points="234.73 192.91 234.73 190.37 229.72 175.33 229.72 177.3 234.73 192.91"/><polygon class="cls-1" points="255.94 255.64 255.94 254.07 250.93 239.03 250.93 240.32 255.94 255.64"/><polygon class="cls-1" points="224.13 160.81 224.13 158.51 219.12 143.47 219.12 145.49 224.13 160.81"/><polygon class="cls-1" points="240.91 211.46 240.91 211.17 245.33 224.13 245.33 222.22 240.32 207.18 240.32 209.4 240.91 211.46"/><polygon class="cls-1" points="192.32 64.79 192.32 62.96 187.31 47.91 187.31 49.48 192.32 64.79"/><polygon class="cls-1" points="213.52 129 213.52 126.66 208.52 111.62 208.52 113.39 213.52 129"/><polygon class="cls-1" points="199.09 85.11 202.92 96.9 202.92 94.81 197.91 79.76 197.91 81.29 199.09 85.11"/><polygon class="cls-1" points="86.59 128.7 86.59 126.97 81.29 111.09 81.29 113.09 86.59 128.7"/><polygon class="cls-1" points="107.79 192.61 107.79 190.5 102.49 174.62 102.49 177 107.79 192.61"/><polygon class="cls-1" points="97.19 160.51 97.19 158.73 91.89 142.85 91.89 145.2 97.19 160.51"/><polygon class="cls-1" points="72.16 85.11 75.98 96.6 75.98 95.2 70.69 79.32 70.69 80.99 72.16 85.11"/><polygon class="cls-1" points="113.98 211.46 113.98 211.17 118.4 223.83 118.4 222.27 113.09 206.38 113.09 209.11 113.98 211.46"/><polygon class="cls-1" points="65.38 64.5 65.38 63.43 60.08 47.55 60.08 49.18 65.38 64.5"/><polygon class="cls-1" points="129 255.34 129 254.04 123.7 238.15 123.7 240.03 129 255.34"/><polygon class="cls-1" points="139.6 37.4 134.3 22.09 134.3 23.63 139.6 39.49 139.6 37.4"/><polygon class="cls-1" points="139.6 285.8 139.6 39.49 134.3 23.63 134.3 269.92 139.6 285.8"/><polygon class="cls-2" points="102.49 0 97.19 0 97.19 158.73 102.49 174.62 102.49 0"/><polygon class="cls-3" points="113.09 0 107.79 0 107.79 190.5 113.09 206.38 113.09 0"/><polygon class="cls-4" points="123.7 0 118.4 0 118.4 222.27 123.7 240.72 123.7 0"/><polygon class="cls-2" points="91.89 0 86.59 0 86.59 126.97 91.89 142.85 91.89 0"/><polygon class="cls-5" points="70.69 0 65.38 0 65.38 63.43 70.69 79.32 70.69 0"/><polygon class="cls-6" points="361.67 0 361.67 18.26 367.26 1.77 367.26 0 361.67 0"/><polygon class="cls-5" points="60.08 0 54.78 0 54.78 31.67 60.08 47.55 60.08 0"/><polygon class="cls-7" points="277.14 271.54 282.44 255.34 282.44 0 277.14 0 277.14 271.54"/><polygon class="cls-8" points="81.29 0 75.98 0 75.98 95.2 81.29 111.09 81.29 0"/><path class="cls-5" d="M139.6,287.15l-5.3-15.31v-1.92L129,254v1.31L123.7,240v-1.88l-5.3-15.88v1.56L114,211.17v.29l-.89-2.35v-2.72l-5.3-15.89v2.11L102.49,177v-2.38l-5.3-15.89v1.78l-5.3-15.31v-2.35L86.59,127v1.73l-5.3-15.61v-2L76,95.2v1.4L72.16,85.12,70.68,81V79.32l-5.3-15.89V64.5l-5.3-15.32V47.55l-5.3-15.88v1l-5.3-15.61V0h-5.3V.59L43.88,0H0L98.37,294.22v.3H142v-.3l.22-.69-2.58-7.73Z"/><polygon class="cls-9" points="287.74 240.03 293.05 223.54 293.05 0 287.74 0 287.74 240.03"/><polygon class="cls-8" points="229.72 0 224.13 0 224.13 158.51 229.72 175.33 229.72 0"/><polygon class="cls-8" points="208.52 0 202.92 0 202.92 94.81 208.52 111.62 208.52 0"/><polygon class="cls-5" points="187.31 0 181.72 0 181.72 31.1 187.31 47.91 187.31 0"/><polygon class="cls-10" points="197.91 0 196.15 0 192.32 0 192.32 62.96 197.91 79.76 197.91 0"/><polygon class="cls-8" points="219.12 0 216.47 0 213.52 0 213.52 126.66 219.12 143.47 219.12 0"/><polygon class="cls-7" points="266.54 285.93 269.4 294.52 269.48 294.52 271.84 286.86 271.84 0 266.54 0 266.54 285.93"/><polygon class="cls-2" points="240.32 0 234.73 0 234.73 190.37 240.32 207.18 240.32 0"/><polygon class="cls-11" points="261.24 0 255.94 0 255.94 254.07 261.24 270 261.24 0"/><polygon class="cls-2" points="250.93 0 245.33 0 245.33 222.22 250.93 239.03 250.93 0"/><polygon class="cls-6" points="160.51 237.97 166.11 221.77 166.11 118.81 160.51 102.07 160.51 237.97"/><polygon class="cls-6" points="171.11 206.46 176.71 189.96 176.71 150.54 171.11 133.8 171.11 206.46"/><polygon class="cls-12" points="181.72 174.65 183.24 170.08 181.72 165.53 181.72 174.65"/><polygon class="cls-13" points="149.91 269.78 155.5 253.28 155.5 87.08 149.91 70.34 149.91 269.78"/><polygon class="cls-9" points="134.3 23.63 129 7.76 129 254.04 134.3 269.92 134.3 23.63"/><path class="cls-14" d="M266.54,287.45l-5.3-15.32V270l-5.31-15.93v1.57l-5-15.32V239l-5.6-16.81v1.91l-4.42-13v.29l-.58-2.06v-2.22l-5.6-16.81v2.54l-5-15.61v-2l-5.59-16.82v2.3l-5-15.32v-2l-5.6-16.81V129l-5-15.61v-1.77l-5.6-16.81V96.9l-3.83-11.78-1.18-3.83V79.76L192.32,63v1.83l-5-15.31V47.91L181.72,31.1V33l-5-15.61V0h-5.6V.88L170.82,0H126.94l1.76,4.78.3.82V7.76l5.3,15.87V22.09l5.3,15.31v2.09l5.3,15.87V53.6l5,15.61v1.13l5.59,16.75V85.41l5,15.31v1.35l5.6,16.74v-1.89l5,15.61v1.27l5.6,16.74v-1.81l5,15.32v1.48l1.52,4.55.24-.73,3.83,11.19,5,15.31,5.59,16.2,5,15.32,5.6,16.49,5,15.31,5.6,16.2,5,15.32,1.18,3.83H269.4l-2.86-8.59Z"/><polygon class="cls-13" points="139.6 285.8 142.18 293.53 144.9 285.09 144.9 55.36 139.6 39.49 139.6 285.8"/><polygon class="cls-15" points="351.36 49.77 356.66 33.58 356.66 0 351.36 0 351.36 49.77"/><polygon class="cls-13" points="298.35 208.22 303.65 192.02 303.65 0 298.35 0 298.35 208.22"/><polygon class="cls-6" points="330.15 113.09 335.45 96.9 335.45 0 330.15 0 330.15 113.09"/><polygon class="cls-16" points="308.95 176.42 314.25 160.22 314.25 0 308.95 0 308.95 176.42"/><polygon class="cls-17" points="340.76 81.58 346.06 65.09 346.06 0 340.76 0 340.76 81.58"/><polygon class="cls-6" points="319.55 0 319.55 144.9 324.85 128.7 324.85 0 323.97 0 319.55 0"/></g></g></svg>